# xmcd
#
# Track frame offsets: 
#        150
#        13170
#        23737
#        34972
#        44637
#        56170
#        69472
#        82397
#        94312
#        104937
#        118397
#        127790
#        140132
#        151550
#        166275
#        180087
#        195585
#        213322
#        230607
#        239230
#        248550
#        260112
#
# Disc length: 3694 seconds
#
# Revision: 2
# Processed by: cddbd v1.5.2PL0 Copyright (c) Steve Scherf et al.
# Submitted via: ExactAudioCopyFreeDBPlugin 1.0
#
DISCID=4a0e6c16
DTITLE=Slim Harpo - The Excello Singles Anthology
DYEAR=2003
DGENRE=Blues
TTITLE0=Baby Scratch My Back
TTITLE1=I'm Gonna Miss You (Like the Devil)
TTITLE2=Shake Your Hips
TTITLE3=Midnight Blues
TTITLE4=I'm Your Bread Maker, Baby
TTITLE5=Loving You (The Way I Do)
TTITLE6=Tip On In (Part 1)
TTITLE7=Tip On In (Part 2)
TTITLE8=I'm Gonna Keep What I've Got
TTITLE9=I've Got to Be with You Tonight
TTITLE10=Te-Ni-Nee-Ni-Nu
TTITLE11=Mailbox Blues
TTITLE12=Mohair Sam
TTITLE13=I Just Can't Leave You
TTITLE14=That's Why I Love You
TTITLE15=Just for You
TTITLE16=Folsom Prison Blues
TTITLE17=Mutual Friend
TTITLE18=I've Got My Finger on Your Trigger
TTITLE19=The Price is Too High
TTITLE20=Rainin' in My Heart (overdubbed version)
TTITLE21=Jody Man
EXTD=JEK  Hip-O B000583-02-CDO2 c. 2003
EXTT0=
EXTT1=
EXTT2=
EXTT3=
EXTT4=
EXTT5=
EXTT6=
EXTT7=
EXTT8=
EXTT9=
EXTT10=
EXTT11=
EXTT12=
EXTT13=
EXTT14=
EXTT15=
EXTT16=
EXTT17=
EXTT18=
EXTT19=
EXTT20=
EXTT21=
PLAYORDER=
